<svg xmlns="http://www.w3.org/2000/svg" width="600" height="600" viewBox="0 0 600 600"><defs><linearGradient id="g" x2=".4" y2="1"><stop stop-color="#fff0b2"/><stop offset=".18" stop-color="#a1742f"/><stop offset=".45" stop-color="#ecd28a"/><stop offset=".7" stop-color="#493013"/><stop offset="1" stop-color="#e1b85a"/></linearGradient></defs><rect x="8" y="8" width="584" height="584" rx="9" fill="#0b0805" fill-opacity=".88" stroke="#261806" stroke-width="15"/><rect x="10" y="10" width="580" height="580" rx="9" fill="none" stroke="url(#g)" stroke-width="4"/><rect x="17" y="17" width="566" height="566" rx="5" fill="none" stroke="#68471e" stroke-width="1"/><g transform="translate(0,0) rotate(0)" fill="none" stroke="url(#g)" stroke-width="2"><path d="M10 96C5 65 3 30 27 11C49 -4 74 6 96 10M10 75C35 56 72 56 69 31C66 8 31 5 24 25C17 49 52 54 56 36C59 23 40 16 37 29C35 37 48 39 47 30M13 105C42 87 62 87 89 66C102 54 99 36 91 29C89 57 65 68 46 69M23 53L10 9L54 23L36 33Z"/><path d="M65 9L109 9L85 16M9 65L9 109L16 85" stroke-width="4"/></g><g transform="translate(600,0) rotate(90)" fill="none" stroke="url(#g)" stroke-width="2"><path d="M10 96C5 65 3 30 27 11C49 -4 74 6 96 10M10 75C35 56 72 56 69 31C66 8 31 5 24 25C17 49 52 54 56 36C59 23 40 16 37 29C35 37 48 39 47 30M13 105C42 87 62 87 89 66C102 54 99 36 91 29C89 57 65 68 46 69M23 53L10 9L54 23L36 33Z"/><path d="M65 9L109 9L85 16M9 65L9 109L16 85" stroke-width="4"/></g><g transform="translate(600,600) rotate(180)" fill="none" stroke="url(#g)" stroke-width="2"><path d="M10 96C5 65 3 30 27 11C49 -4 74 6 96 10M10 75C35 56 72 56 69 31C66 8 31 5 24 25C17 49 52 54 56 36C59 23 40 16 37 29C35 37 48 39 47 30M13 105C42 87 62 87 89 66C102 54 99 36 91 29C89 57 65 68 46 69M23 53L10 9L54 23L36 33Z"/><path d="M65 9L109 9L85 16M9 65L9 109L16 85" stroke-width="4"/></g><g transform="translate(0,600) rotate(270)" fill="none" stroke="url(#g)" stroke-width="2"><path d="M10 96C5 65 3 30 27 11C49 -4 74 6 96 10M10 75C35 56 72 56 69 31C66 8 31 5 24 25C17 49 52 54 56 36C59 23 40 16 37 29C35 37 48 39 47 30M13 105C42 87 62 87 89 66C102 54 99 36 91 29C89 57 65 68 46 69M23 53L10 9L54 23L36 33Z"/><path d="M65 9L109 9L85 16M9 65L9 109L16 85" stroke-width="4"/></g></svg>